<?xml version="1.0" encoding="utf-8"?><svg xmlns="http://www.w3.org/2000/svg" xmlns:xlink="http://www.w3.org/1999/xlink"><symbol viewBox="0 0 256 212" preserveAspectRatio="xMinYMin meet" id="bem"><path d="M0 32.692h59.85v17.603H0V32.692zM0 0h59.85v17.603H0V0zm107.38 65.132H0v17.603h103.356c11.316 0 37.72.251 47.528 16.094v-9.807c-4.778-15.592-18.86-23.89-43.505-23.89zm.25 32.691H0v17.603h103.356c25.147 0 40.99 1.006 47.528 4.527v-7.796c-5.03-12.322-26.153-14.334-43.253-14.334zm-.25 82.986H0v-17.603h103.356c11.316 0 37.72-.251 47.528-16.094v9.807c-4.778 15.592-18.86 23.89-43.505 23.89zm.25-32.691H0v-17.603h103.356c25.147 0 40.99-1.006 47.528-4.527v7.796c-5.03 12.322-26.153 14.334-43.253 14.334zm69.407 63.12H256v-10.814h-76.7c-6.79 0-22.883-.251-28.667-9.556v6.036c2.766 9.304 11.316 14.334 26.404 14.334zm-.251-19.867h78.963v-10.813H179.3c-15.34 0-24.896-.503-28.668-2.766v4.778c3.017 7.544 15.842 8.801 26.153 8.801z"/></symbol><symbol viewBox="0 0 205 205" id="chrome"><path d="M102.5 205c56.519 0 102.5-45.981 102.5-102.5S159.019 0 102.5 0 0 45.981 0 102.5 45.981 205 102.5 205zM190 102.5c0 48.248-39.252 87.5-87.5 87.5a87.17 87.17 0 0 1-26.799-4.203l53.578-45.719a46.568 46.568 0 0 0 6.119-5.221l.036-.031-.003-.004c8.183-8.335 13.242-19.747 13.242-32.322 0-11.978-4.586-22.903-12.092-31.117h47.697A87.088 87.088 0 0 1 190 102.5zm-117.919 6.793a31.163 31.163 0 0 1-.754-6.793c0-16.907 13.532-30.704 30.333-31.151v.035h2.646c16.351.938 29.368 14.534 29.368 31.117 0 8.271-3.244 15.793-8.518 21.379l-5.189 4.428a30.997 30.997 0 0 1-17.466 5.366c-12.685 0-23.617-7.62-28.479-18.519l.037-.012-1.978-5.85zM102.5 15c31.334 0 58.869 16.56 74.328 41.383h-72.114a46.466 46.466 0 0 0-2.214-.056c-17.303 0-32.404 9.572-40.311 23.694l-15.235-45.08C62.074 22.488 81.429 15 102.5 15zM35.111 46.75l22.534 66.679c4.466 18.327 19.893 32.395 38.917 34.85l-36.197 30.887C33.345 164.256 15 135.481 15 102.5c0-21.167 7.556-40.601 20.111-55.75z"/></symbol><symbol viewBox="0 0 32 32" id="code"><path d="M22 6v4l6 6-6 6v4l10-10zm-12 4V6L0 16l10 10v-4l-6-6zm8 2l-8 8h4l8-8z"/></symbol><symbol viewBox="0 0 470.699 470.699" id="css-3"><path d="M426.981 0H43.701C34.52 0 27.632 7.769 28.442 16.949L63.45 409.254c.811 9.173 8.745 18.774 17.644 21.253L219.1 468.842c8.887 2.463 23.413 2.479 32.313.032l138.177-38.281c8.901-2.472 16.835-11.986 17.645-21.175l35.023-392.469C443.068 7.769 436.209 0 426.981 0zM360.51 141.611a.134.134 0 0 1-.112.117.134.134 0 0 1-.144-.077L252.13 185.96a3.485 3.485 0 0 0 1.321 6.708h84.103a15.772 15.772 0 0 1 15.682 17.443l-13.141 123.273a15.77 15.77 0 0 1-10.447 13.205l-89.269 31.41a15.761 15.761 0 0 1-10.397.025l-88.852-30.778a15.771 15.771 0 0 1-10.52-13.228l-5.957-55.828a10.388 10.388 0 0 1 10.331-11.492h24.725c5.313 0 9.769 4.007 10.331 9.289l3.655 34.316 61.521 21.385 61.803-21.58 7.559-71.17H129.835a10.39 10.39 0 0 1-10.327-9.25l-3.327-30.164a10.388 10.388 0 0 1 6.366-10.745l111.837-46.109a2.872 2.872 0 0 0-1.093-5.528H115.542a6.926 6.926 0 0 1-6.888-6.201l-3.406-32.421a6.927 6.927 0 0 1 6.887-7.648h246.379a6.928 6.928 0 0 1 6.881 7.707l-4.885 43.032z"/></symbol><symbol viewBox="0 0 512 512" id="facebook-logo"><path d="M365.075 307.969c-.209-21.573-17.756-38.95-39.33-38.95h-36.052v-54.677c0-15.267 12.377-27.643 27.643-27.643h13.209c19.534 0 35.37-15.836 35.37-35.37s-15.836-35.37-35.37-35.37H298.02c-48.044 0-86.991 38.947-86.991 86.991v66.067h-25.613c-21.722 0-39.332 17.609-39.332 39.332 0 21.722 17.609 39.332 39.332 39.332h25.613v149.794h78.665V347.682h36.052c21.871 0 39.541-17.843 39.329-39.713z"/><path d="M289.693 512h-78.665c-8.021 0-14.523-6.502-14.523-14.523V362.206h-11.09c-29.695 0-53.855-24.159-53.855-53.855s24.159-53.856 53.855-53.856h11.09v-51.544c0-55.975 45.539-101.514 101.514-101.514h32.525c27.511 0 49.893 22.382 49.893 49.893 0 27.51-22.382 49.893-49.893 49.893h-13.209c-7.234 0-13.12 5.886-13.12 13.12v40.154h21.529c29.409 0 53.567 23.925 53.853 53.332.141 14.484-5.395 28.128-15.588 38.419s-23.782 15.958-38.266 15.958h-21.528v135.271c.001 8.021-6.501 14.523-14.522 14.523zm-64.14-29.046h49.618V347.682c0-8.021 6.502-14.523 14.523-14.523h36.052c6.672 0 12.933-2.611 17.627-7.352 4.695-4.74 7.246-11.026 7.18-17.698-.131-13.547-11.26-24.569-24.808-24.569h-36.052c-8.021 0-14.523-6.502-14.523-14.523V214.34c0-23.25 18.915-42.166 42.166-42.166h13.209c11.495 0 20.847-9.351 20.847-20.847 0-11.495-9.351-20.847-20.847-20.847H298.02c-39.959 0-72.468 32.509-72.468 72.468v66.067c0 8.021-6.502 14.523-14.523 14.523h-25.613c-13.679 0-24.808 11.129-24.808 24.81 0 13.679 11.129 24.808 24.808 24.808h25.613c8.021 0 14.523 6.502 14.523 14.523v135.275z"/><path d="M432.464 512h-37.766c-8.021 0-14.523-6.502-14.523-14.523s6.502-14.523 14.523-14.523h37.766c27.839 0 50.49-22.65 50.49-50.49V79.536c0-27.839-22.65-50.49-50.49-50.49H214.367c-8.021 0-14.523-6.502-14.523-14.523S206.346 0 214.367 0h218.097C476.321 0 512 35.679 512 79.536v352.928C512 476.321 476.321 512 432.464 512zm-142.771 0H79.536C35.679 512 0 476.321 0 432.464V79.536C0 35.679 35.679 0 79.536 0h32.684c8.021 0 14.523 6.502 14.523 14.523s-6.502 14.523-14.523 14.523H79.536c-27.839 0-50.49 22.65-50.49 50.49v352.928c0 27.839 22.65 50.49 50.49 50.49h210.157c8.021 0 14.523 6.502 14.523 14.523S297.714 512 289.693 512z"/></symbol><symbol viewBox="0 0 475.084 475.084" id="github"><path d="M436.244 146.752c5.14-15.422 7.713-31.409 7.713-47.967 0-22.08-4.859-42.828-14.564-62.242-20.362 0-38.349 3.715-53.961 11.136-15.604 7.423-33.4 18.938-53.379 34.545-25.122-6.09-51.777-9.135-79.941-9.135-30.837 0-60.245 3.333-88.223 9.994-20.364-15.99-38.351-27.74-53.959-35.26-15.608-7.52-33.689-11.279-54.247-11.279-9.707 19.414-14.56 40.163-14.56 62.242 0 16.751 2.568 32.93 7.708 48.535C12.942 177.587 0 215.272 0 260.383c0 39.595 5.898 71.092 17.701 94.507 6.283 12.367 14.465 23.312 24.554 32.832 10.085 9.514 21.601 17.228 34.545 23.13 12.946 5.896 25.981 10.801 39.116 14.699 13.134 3.9 27.646 6.758 43.54 8.559 15.893 1.816 29.93 3.004 42.111 3.579 12.181.564 25.693.853 40.544.853 17.508 0 33.396-.432 47.678-1.283 14.277-.855 30.594-2.953 48.964-6.276 18.367-3.333 34.547-7.857 48.54-13.565 13.99-5.708 27.412-13.895 40.259-24.551 12.847-10.663 22.884-23.318 30.121-37.976 11.604-23.603 17.412-55.107 17.412-94.507-.007-45.302-12.95-83.178-38.841-113.632zm-34.249 207.703c-6.092 12.471-13.802 22.265-23.127 29.41-9.329 7.139-20.938 12.847-34.831 17.135-13.9 4.281-27.217 7.087-39.971 8.415-12.758 1.334-26.933 1.998-42.545 1.998h-47.966c-15.607 0-29.79-.664-42.541-1.998-12.752-1.328-26.075-4.134-39.971-8.415-13.891-4.288-25.5-9.996-34.829-17.135-9.329-7.146-17.037-16.939-23.128-29.41-6.09-12.471-9.136-27.076-9.136-43.824 0-22.847 6.567-42.264 19.702-58.245 13.134-15.99 30.929-23.982 53.387-23.982 8.188 0 26.746 1.997 55.677 5.995 13.513 2.093 28.456 3.14 44.823 3.14 16.372 0 31.313-1.044 44.824-3.14 29.317-3.999 47.869-5.995 55.678-5.995 22.457 0 40.252 7.996 53.386 23.982 13.135 15.988 19.698 35.398 19.698 58.245 0 16.751-3.046 31.364-9.13 43.824z"/><path d="M166.875 265.52c-5.806-6.475-12.703-9.712-20.699-9.712-7.998 0-14.896 3.241-20.701 9.712-5.802 6.468-9.897 13.703-12.275 21.689-2.383 8.002-3.571 15.804-3.571 23.422 0 7.61 1.191 15.413 3.571 23.414 2.375 7.991 6.468 15.222 12.275 21.689 5.808 6.475 12.703 9.713 20.701 9.713 7.996 0 14.896-3.244 20.699-9.713 5.804-6.468 9.897-13.698 12.275-21.689 2.38-8.001 3.571-15.804 3.571-23.414 0-7.611-1.188-15.42-3.571-23.422-2.379-7.983-6.468-15.215-12.275-21.689zm182.726 0c-5.804-6.475-12.703-9.712-20.697-9.712-7.991 0-14.894 3.241-20.701 9.712-5.804 6.468-9.896 13.703-12.271 21.689-2.385 8.002-3.576 15.804-3.576 23.422 0 7.61 1.191 15.413 3.576 23.414 2.375 7.991 6.468 15.222 12.271 21.689 5.808 6.475 12.71 9.713 20.701 9.713 7.994 0 14.894-3.244 20.697-9.713 5.801-6.468 9.896-13.698 12.278-21.689 2.379-8.001 3.569-15.804 3.569-23.414 0-7.611-1.19-15.42-3.569-23.422-2.381-7.983-6.477-15.215-12.278-21.689z"/></symbol><symbol viewBox="0 0 16 16" fill-rule="evenodd" clip-rule="evenodd" stroke-linejoin="round" stroke-miterlimit="1.414" id="gulp"><path d="M10.108 12.96l.424-.724s-.964.395-2.578.395c-1.614 0-2.564-.38-2.564-.38l.475.79.168 2.49c0 .27.878.48 1.96.48 1.084 0 1.962-.21 1.962-.48l.153-2.56zm.41-4.705c-.513.03-.77.603-1.028 1.205-.095.22-.42 1.16-.633 1.044-.213-.116.276-.888.413-1.347-.158.116-.738.567-.887.144-.24.21-.754.32-.696-.22-.128.23-.415.55-.76.41-.45-.17.263-1.61.44-1.54.178.08-.035.4-.09.53-.124.28-.266.64-.17.71.16.13.603-.47.613-.48.083-.11.32-.82.51-.74.19.09-.475 1.03-.227 1.22.05.04.255-.02.38-.16.08-.08.052-.28.32-.92.27-.64.51-1.44.694-1.38.184.06.032.47-.034.63-.31.72-.847 1.9-.594 1.81.25-.09.38-.09.63-.38.25-.29.23-.77.4-.76.16.01.14.17.1.28.16-.18.77-.58.91-.19.17.46-.87 1.13-.61 1.09.25-.03.66-.29.84-.53l.48-4.34s-.49.4-3.58.4-3.53-.39-3.53-.39l.41 3.96c.22-.62.74-1.88 1.55-1.83.37.02.87.74.44.76-.18.01-.2-.36-.41-.41-.16-.03-.37.09-.51.23-.27.27-.87 1.34-.79 1.87.1.68.94-.23 1.08-.5.1-.19.17-.76.38-.7.22.06-.02.65-.18 1.16-.18.58-.27 1.19-.49 1.12-.22-.07.14-.82.12-.95-.21.2-.59.68-1.09.44l.25 2.47s.68.53 2.72.53 2.75-.53 2.75-.53l.32-2.86c-.26.26-1.08.71-1.13.2-.04-.41.89-1 .65-1.01zM11.57.43L9.794 2.3 9.47 3.57c1.256.08 2.13.257 2.13.463 0 .28-1.612.506-3.6.506s-3.6-.23-3.6-.51 1.612-.51 3.6-.51c.282 0 .563 0 .844.01l.374-1.52 1.887-2c.046-.06.187-.01.316.1.13.1.2.23.16.29v.02zM9.01 4.3s-.35 0-.408-.054a.09.09 0 0 1-.024-.06c0-.038.026-.06.06-.073l.03.05c-.014.004-.02.01-.022.015 0 .028.21.047.37.045.16-.002.355-.016.356-.043 0-.008-.015-.016-.04-.022l.03-.048c.042.013.078.038.078.08 0 .074-.094.086-.154.094-.072.01-.275.016-.275.016z"/></symbol><symbol viewBox="0 0 456.804 456.804" id="html-5"><path d="M27.405 0l36.542 410.56 163.882 46.244 165.022-46.244L429.398 0H27.405zm322.62 133.904h-192.43l4.283 51.676h183.866l-14.273 155.315-102.499 28.26v.287h-1.143l-103.356-28.547-6.28-79.367h49.965l3.711 39.971 55.959 15.126 56.245-15.126 6.283-65.097H115.625l-13.418-152.46h252.392l-4.574 49.962z"/></symbol><symbol viewBox="0 0 97.395 97.395" id="instagram"><path d="M12.501 0h72.393c6.875 0 12.5 5.09 12.5 12.5v72.395c0 7.41-5.625 12.5-12.5 12.5H12.501C5.624 97.395 0 92.305 0 84.895V12.5C0 5.09 5.624 0 12.501 0zm58.447 10.821a4.395 4.395 0 0 0-4.383 4.385v10.495a4.396 4.396 0 0 0 4.383 4.385h11.008a4.398 4.398 0 0 0 4.385-4.385V15.206a4.397 4.397 0 0 0-4.385-4.385H70.948zm15.439 30.367h-8.572a28.486 28.486 0 0 1 1.25 8.355c0 16.2-13.556 29.332-30.275 29.332-16.718 0-30.272-13.132-30.272-29.332 0-2.904.438-5.708 1.25-8.355h-8.945v41.141a3.884 3.884 0 0 0 3.872 3.872h67.822a3.883 3.883 0 0 0 3.872-3.872V41.188h-.002zM48.789 29.533c-10.802 0-19.56 8.485-19.56 18.953s8.758 18.953 19.56 18.953c10.803 0 19.562-8.485 19.562-18.953s-8.758-18.953-19.562-18.953z"/></symbol><symbol viewBox="0 0 16 16" id="javascript"><path d="M0 0h16v16H0V0zm14.69 12.184c-.117-.73-.593-1.343-2.003-1.915-.49-.23-1.035-.39-1.198-.76-.06-.22-.07-.34-.03-.47.1-.43.61-.56 1.01-.44.26.08.5.28.65.6.69-.45.69-.45 1.17-.75-.18-.28-.27-.4-.39-.52-.42-.47-.98-.71-1.89-.69l-.47.06c-.45.11-.88.35-1.14.67-.76.86-.54 2.36.38 2.98.91.68 2.24.83 2.41 1.47.16.78-.58 1.03-1.31.94-.54-.12-.84-.39-1.17-.89l-1.22.7c.14.32.3.46.54.74 1.16 1.17 4.06 1.11 4.58-.67.02-.06.16-.47.05-1.1zM8.7 7.354H7.202c0 1.292-.006 2.576-.006 3.87 0 .822.042 1.576-.092 1.807-.22.46-.786.4-1.044.32-.264-.13-.398-.31-.553-.57-.042-.07-.074-.13-.085-.13l-1.217.75c.203.42.5.78.883 1.01.57.34 1.336.45 2.138.27.522-.15.972-.46 1.207-.94.34-.62.268-1.38.265-2.23.008-1.37 0-2.74 0-4.12z" fill-rule="evenodd"/></symbol><symbol viewBox="0 0 1000 1000" id="less"><path d="M225.4 299v250.7c0 5.8-.7 12.7 1.4 15.9 6.6 10.7 37.2-.5 43 11.3 2 4 1.1 12.3 1.1 18.9v10c0 3 .7 7.8 0 9.7-.8 2.1-10 4.5-12.4 5.1-5 1.3-10.2 1.8-15.4 2.2-12.3.7-22.6-1.2-31.1-3.5-12.6-3.5-25.5-9.6-35.1-17.6-2.8-2.3-7.5-6.3-8.4-8.9-.6-1.9-.7-4.8-1.1-7.3-2.4-17-3.5-35.9-4.3-54.3-2.8-66 2.2-131.8 0-198-20.8-5.2-27.6 10.8-45.1 11.3-12.7 54.9 8.7 143.9-50.2 152.6 21.5 11.4 33.8 28.1 40.8 55.1 6 23.1 6.6 50.1 4.6 77.5-.6 7.8-1.3 14.6 2.2 20 6.7 10.4 25.1 11.7 30.3 23.8 1.6 3.8 2.3 11.4.8 15.7-1.1 3.2-4.9 6.1-8.1 8.1-18 11.5-49 3.6-65.1-4.6-3.2-1.6-6.8-3.7-10-6.2-3.1-2.4-6.6-5.2-7.8-8.1-.8-1.8-1.1-4.5-1.6-7-3.2-15.4-3.8-36.7-4.1-55.1-.2-10.9 0-22.4 0-34 0-14.4 2.4-31.5-3.2-40.5-8-12.8-31.2-14.4-35.4-32.4-2-8.5-1-20.4 4.1-26.5 7.1-8.7 20.5-11.6 28.6-20 2.5-2.5 5.5-6.5 5.9-10 .3-2.3-.6-5.2-1.1-7.8-2.9-17-5.2-37.3-3.5-57.3 5-59.6 42-87.4 101.8-92.4 26.4-2.1 53.6.1 78.4 3.6zm622.4 402.2c-2.2-8.5-2.4-17.8.8-24.6 5-10.6 17.7-14.6 26.2-22.4 2.8-2.6 6.1-6.4 6.8-9.5.6-2.9-.1-8-.3-11.6-2.6-58.2 0-117.1 45.1-129.9-2.2-2-4.9-3.2-7.3-4.9-30.4-21-40.1-63.1-38.6-116.2.1-3.7.3-7.6.5-11.3.4-6.8 1.1-13-1.3-18.1-6.3-13.2-27.7-14.3-33.2-28.9-2.8-7.3-1.3-16.6 1.4-24.9 4.8-.3 10.7-1.1 15.9-1.4 42.5-2 66.9 17.9 77.8 48.1 8.5 23.5 10.2 52 9.5 84.3-.1 4.7-.6 9.8-.8 14.9-.2 4.9-.9 10.1 0 14.6 3.8 19.5 32.6 14.4 38.4 32.7 3 9.3 1.2 21-3.5 27.8-7.9 11.5-25.4 14.8-36.7 24-1.7 1.4-3.8 3.5-4.1 4.6-.4 1.8.1 5.3.3 8.1 1.8 37.7 4.9 82.4-6.8 112.1-6.2 15.8-16.5 27.4-32.7 33-16.4 5.7-40.5 4.1-57.4-.5z"/><path d="M468.8 525.7H327.3c-.2 30.2 17.3 44.2 43.8 48.1 28.2 4.1 58-3 80.8-8.6.5 18.2 9.7 31.9 5.7 51.3-19.3 4.1-38.4 7.9-60 8.4-22.5.5-43.8-1.5-61-6.8-34.6-10.4-60.6-31.9-69.7-67-10.6-40.9-1.3-84.7 14.9-112.6 8.4-14.5 19.3-26.3 32.7-35.7 13.6-9.6 31.2-16.6 51.9-17.6 20.5-1 39.6 2.8 53.2 9.5 14 6.9 24.3 17.4 32.7 30 8 12 14.8 27 18.1 44.6 3.1 17.4 3.1 38.1-1.6 56.4zm-68.3-78.1c-8.2-7.2-19.7-11.8-34.3-10.8-23.1 1.6-40.4 17.2-39.2 43.2 27.8.6 56.8.1 85.1.3 1.5-14.5-3.5-25.5-11.6-32.7zm243.6-46.5c-1.1 17.8-5.9 31.8-11.1 45.4-12.9-4.4-28.4-10.1-45.4-11.1-19.2-1.1-33.3 3.6-39.7 16.5 13.3 33.9 68.8 26.8 92.1 51.6 1.6 1.7 3.5 3.6 4.3 5.1 1 2.1 1.4 4.9 2.2 7.3 4.8 16.4 7.3 39.4 1.1 56.5-6.5 18.1-20.2 30.6-35.9 38.9-16.4 8.7-37.3 13.2-60.8 14.3-23.3 1.1-46.4-3.5-65.4-9.5-2.7-21.3 5.1-36.4 11.1-50.8 2 .4 3.8 1.4 5.7 2.2 25.4 10.8 81.5 17 90.8-13.2-5.7-12.3-14.7-20.2-26.2-25.4-12-5.4-25.9-8-39.4-11.9-13.4-3.9-24.9-9.1-32.4-19.2-3.5-4.7-6.2-10.6-8.4-17.3-2.1-6.4-3.8-13.9-3.8-21.9-.1-24.1 14.1-41.3 28.9-51.6 15.8-11 37.4-18.3 61.9-19.4 28.8-1.3 50.9 4.9 70.4 13.5zm175.6 0c3.2 15.7-3.5 27.4-5.9 40-7.5 3.2-16.2 1.1-24-.5-7.7-1.6-15.6-3.5-23.2-4.6-15.7-2.3-29.6-.7-35.4 11.1-.7 1.5-1.9 3.4-1.9 4.9 0 2.9 3.3 8.7 4.6 10.8 5.9 9.5 16.3 15 28.1 17.8 17.4 4.1 36.1 4 48.1 13 3.2 2.4 5.8 5.8 8.4 8.9 8.9 10.8 17.3 24.8 15.9 45.4-1.3 19-11.9 33.5-22.7 44.3-21.5 21.5-54.2 36.7-97 36.7-19.6 0-38.6-5.2-53.8-13-2.9-22.4 9.9-31.6 11.3-50.5 2.1.1 3.8 1.4 5.7 2.2 5.9 2.2 12.3 3.9 18.9 5.4 25 5.8 58 5.8 69.2-13.2 1.1-1.8 2.4-4.3 2.4-5.7.1-3.3-4.7-10.5-6.5-12.7-17.7-21-56.7-19.1-80-35.1-3.9-2.7-8.3-5.9-10-9.2-1.4-2.6-2.3-6.7-3.2-9.7-2.8-9.1-5.4-21.6-4.3-33.2 1.4-15.8 7.4-26.9 15.1-35.7 15.5-17.6 41.2-28.8 72.7-30.3 27.6-1.3 48.9 4.7 67.5 12.9z"/></symbol><symbol viewBox="0 0 512.001 512.001" id="logovk"><path d="M432.464 512.001h-37.767c-8.02 0-14.523-6.503-14.523-14.523s6.503-14.523 14.523-14.523h37.767c27.839 0 50.49-22.65 50.49-50.49V79.537c0-27.839-22.65-50.49-50.49-50.49H214.367c-8.021 0-14.523-6.503-14.523-14.523S206.346.001 214.367.001h218.098c43.855 0 79.536 35.679 79.536 79.536v352.93c-.001 43.855-35.68 79.534-79.537 79.534zm-142.77 0H79.536C35.679 512.001 0 476.322 0 432.465V79.537C0 35.68 35.679.001 79.536.001h32.684c8.021 0 14.523 6.503 14.523 14.523s-6.502 14.523-14.523 14.523H79.536c-27.839 0-50.49 22.65-50.49 50.49v352.93c0 27.839 22.65 50.49 50.49 50.49h210.158c8.02 0 14.523 6.503 14.523 14.523s-6.503 14.521-14.523 14.521z"/><path d="M409.589 356.56c-11.793 0-26.217-.331-32.376-.471-1.855-.042-3.064-.07-3.394-.071-9.868-.044-18.366-3.427-25.256-10.057-5.59-5.379-11.001-11.261-16.234-16.95-2.963-3.218-6.024-6.547-9.113-9.78-3.114-3.258-6.046-5.92-8.968-8.14-3.791-2.89-7.831-4.421-11.672-4.421-6.352 0-11.584 3.994-14.352 10.959-3.181 8.03-5.622 27.642-5.712 28.852-.392 5.507-3.541 8.338-9.627 8.672-3.991.216-7.908.328-11.64.328-24.047 0-44.348-4.613-62.063-14.103-17.914-9.595-33.977-23.648-49.103-42.961-19.111-24.393-36.321-52.671-55.802-91.685-.935-1.872-15.887-33.75-17.322-37.346-.408-1.675-.63-4.408.787-5.327 1.079-.102 4.364-.276 14.169-.276 16.35 0 40.411.495 41.742.542 6.736.365 10.407 3.016 13.019 9.456 11.412 28.178 25 51.943 41.541 72.648 2.507 3.153 5.782 6.158 9.468 8.683 2.587 1.775 5.362 2.713 8.023 2.713h.001c5.066 0 9.24-3.237 11.165-8.665 2.212-6.174 3.991-17.538 4.1-23.565.289-14.785-.038-24.428-.835-39.227-.745-13.684-7.253-21.859-19.871-24.925 3.838-4.151 9.068-5.214 17.056-5.641 4.472-.241 9.363-.359 14.957-.359 5.199 0 10.515.099 15.656.196 3.612.068 7.222.135 10.831.171 5.956.054 11.117.575 15.79 1.596 2.841.619 6.747 2.232 7.902 9.103.59 3.487.851 6.869.776 10.06-.148 6.546-.369 13.207-.581 19.648-.306 9.261-.624 18.838-.733 28.287-.087 7.333.537 14.092 1.853 20.09 1.74 7.877 6.464 12.576 12.641 12.576 2.595 0 6.575-.919 10.797-5.295 6.688-6.945 13.145-15.026 20.937-26.198 10.166-14.583 18.947-31.592 27.635-53.531 2.916-7.341 3.663-7.857 11.427-7.874 10.189-.026 20.376-.041 30.564-.041 8.94 0 17.882.013 26.823.041 3.409.015 6.161.367 8.412 1.082 1.541.491 2.873 1.205 2.135 4.46-2.722 12.076-9.701 22.623-16.028 31.559-7.687 10.85-15.774 21.737-23.594 32.266a3373.124 3373.124 0 0 0-12.32 16.655c-1.497 2.043-2.935 4.321-4.521 7.166-5.798 10.491-4.878 17.849 3.268 26.261 4.332 4.467 8.833 8.861 13.186 13.107 6.145 5.998 12.501 12.199 18.331 18.577 7.372 8.079 13.862 16.519 19.285 25.081 2.511 3.965 3.23 7.805 1.969 10.531-1.216 2.633-4.335 4.431-8.786 5.063-1.281.176-5.115.48-16.343.48z"/><path d="M409.589 371.083c-11.894 0-26.41-.331-32.607-.472-1.767-.041-2.88-.067-3.246-.07-13.517-.061-25.709-4.941-35.242-14.116-5.933-5.711-11.485-11.745-16.853-17.582l-.186-.203c-2.857-3.102-5.809-6.31-8.74-9.378-2.575-2.694-4.949-4.858-7.256-6.611-1.335-1.018-2.314-1.362-2.726-1.439-.202.219-.6.741-1.012 1.781-1.971 4.976-4.271 20.18-4.735 24.692-.967 12.806-9.889 21.234-23.307 21.969-4.265.231-8.445.349-12.435.349-26.502 0-49.046-5.176-68.922-15.824-19.727-10.566-37.285-25.877-53.678-46.807-19.733-25.187-37.425-54.225-57.362-94.151-.847-1.696-16.122-34.201-17.818-38.456a14.525 14.525 0 0 1-.622-1.945c-2.128-8.74.55-16.766 6.991-20.945a14.513 14.513 0 0 1 6.538-2.274c.892-.086 3.605-.341 15.537-.341 16.745 0 40.825.501 42.252.55.091.004.183.007.274.013 12.34.668 20.984 6.891 25.691 18.498 10.881 26.868 23.779 49.45 39.429 69.043 1.185 1.492 2.706 2.986 4.408 4.344 1.316-5.025 2.412-12.545 2.482-16.376.282-14.356-.039-23.75-.816-38.183-.444-8.146-3.191-10.23-8.798-11.592a14.525 14.525 0 0 1-7.234-23.971c7.561-8.177 17.418-9.773 26.945-10.282 4.735-.256 9.883-.381 15.733-.381 5.365 0 10.736.1 15.928.199 3.571.067 7.141.134 10.709.17 6.944.062 13.08.694 18.738 1.929 10.297 2.241 17.272 9.852 19.127 20.881.742 4.386 1.069 8.699.973 12.811-.147 6.496-.363 13.085-.575 19.457l-.012.33c-.306 9.266-.619 18.723-.726 27.974-.07 5.907.386 11.293 1.354 16.031 5.773-6.133 11.514-13.402 18.44-23.334 9.504-13.633 17.779-29.703 26.044-50.57 5.116-12.881 11.165-17.021 24.9-17.05 19.15-.048 38.309-.061 57.462 0 4.922.02 9.092.597 12.763 1.763 9.363 2.985 14.141 11.627 11.902 21.513-3.305 14.671-11.2 26.657-18.34 36.742-7.761 10.955-15.874 21.876-23.718 32.44a3467.749 3467.749 0 0 0-12.34 16.68c-1.131 1.544-2.261 3.34-3.547 5.648-2.826 5.114-2.462 5.49 1.017 9.083 4.197 4.326 8.619 8.643 12.897 12.817 6.328 6.177 12.815 12.509 18.908 19.172 7.953 8.714 14.959 17.83 20.836 27.109 5.201 8.214 6.252 17.105 2.884 24.393-1.939 4.2-7.109 11.528-19.927 13.35-1.925.265-5.904.622-18.382.622zm-107.013-78.938c7.051 0 14.132 2.558 20.479 7.395 3.523 2.678 7.015 5.84 10.661 9.655 3.117 3.263 6.162 6.57 9.107 9.771l.19.208c5.08 5.523 10.326 11.226 15.621 16.323 4.165 4.008 9.154 5.97 15.249 5.998.354.001 1.66.029 3.661.076 6.197.141 20.479.466 32.042.466 2.682 0 4.89-.019 6.697-.046-4.024-5.706-8.564-11.334-13.552-16.797-5.525-6.043-11.71-12.082-17.694-17.922-4.472-4.363-9.039-8.82-13.522-13.443-12.657-13.068-14.471-27.261-5.552-43.397 1.911-3.427 3.657-6.185 5.517-8.725 4.107-5.597 8.242-11.164 12.377-16.732 7.819-10.526 15.832-21.316 23.403-32 3.098-4.376 6.37-9.168 9.02-14.204-15.829-.035-31.673-.02-47.515.017-8.945 22.385-18.086 39.956-28.709 55.192-8.251 11.831-15.155 20.456-22.389 27.967-7.768 8.056-15.846 9.745-21.258 9.745-13.078 0-23.606-9.408-26.823-23.966-1.557-7.096-2.293-14.96-2.194-23.394.11-9.561.428-19.176.736-28.475l.014-.447c.209-6.299.424-12.809.568-19.168a36.274 36.274 0 0 0-.272-5.198c-2.937-.444-6.171-.677-9.81-.709-3.667-.038-7.321-.105-10.974-.174-5.384-.1-10.998-.209-16.356-.192 1.892 4.63 3.019 9.854 3.333 15.611.816 15.162 1.152 25.058.853 40.299-.132 7.296-2.152 20.375-4.948 28.179-3.997 11.264-13.52 18.289-24.837 18.289-5.607 0-11.223-1.818-16.24-5.259-4.858-3.329-9.225-7.349-12.622-11.623-17.406-21.791-31.685-46.737-43.632-76.233a17.79 17.79 0 0 0-.167-.394l-.036-.003c-2.212-.061-20.973-.437-36.019-.514 4.425 9.524 9.559 20.46 10.291 21.943 19.021 38.091 35.749 65.605 54.232 89.197 13.858 17.695 28.423 30.488 44.528 39.115 15.553 8.332 33.611 12.382 55.205 12.382 2.373 0 4.833-.048 7.35-.145.951-7.145 3.064-20.804 6.127-28.532 5.018-12.614 15.43-20.136 27.86-20.136z"/></symbol><symbol viewBox="0 0 35 35" id="phone"><path d="M25.302 0H9.698a2.37 2.37 0 0 0-2.364 2.364v30.271A2.371 2.371 0 0 0 9.698 35h15.604a2.37 2.37 0 0 0 2.364-2.364V2.364A2.37 2.37 0 0 0 25.302 0zM15.004 1.704h4.992a.286.286 0 0 1 0 .573h-4.992a.286.286 0 1 1 0-.573zM17.5 33.818a1.182 1.182 0 1 1 0-2.364 1.182 1.182 0 0 1 0 2.364zm8.521-3.193H8.979V3.749h17.042v26.876z"/></symbol><symbol viewBox="0 0 243.852 243.852" id="photoshop"><path d="M45.213 211.003v-61.364c3.273.319 7.133.485 11.346.485 25.676 0 46.436-6.773 60.043-19.594 11.146-10.589 17.287-26.365 17.287-44.42 0-17.536-7.334-33.392-20.109-43.494-12.559-10.045-31.014-14.929-56.42-14.929-22.008 0-40.605 1.266-55.279 3.764A2.498 2.498 0 0 0 0 33.915v177.088a2.5 2.5 0 0 0 2.5 2.5h40.213a2.5 2.5 0 0 0 2.5-2.5zm0-97.664V64.405c2.455-.471 7.066-1.094 14.275-1.094 18.551 0 29.19 8.698 29.19 23.863 0 16.776-12.105 26.793-32.385 26.793-4.865 0-8.33-.192-11.08-.628zM206.76 129.02c-16.568-5.798-19.363-8.559-19.363-12.553 0-7.093 8.109-8.152 12.945-8.152 10.268 0 20.979 3.852 27.031 7.15a2.5 2.5 0 0 0 3.617-1.572l7.191-27.959a2.5 2.5 0 0 0-1.303-2.858c-7.465-3.732-21.332-7.721-37.869-7.721-32.674 0-55.494 18.549-55.494 45.065-.221 12.937 6.317 30.649 38.725 41.558 15.742 5.248 17.465 7.975 17.465 12.542 0 2.082 0 8.418-14.809 8.418-11.094 0-26.072-4.927-33.588-9.491a2.5 2.5 0 0 0-3.725 1.536l-7.189 29.028a2.5 2.5 0 0 0 1.238 2.8c10.998 5.944 26.768 9.354 43.264 9.354 36.365 0 58.955-17.08 58.955-44.608-.288-20.691-11.732-33.811-37.091-42.537z"/></symbol><symbol viewBox="0 0 213.289 213.289" id="skype"><path d="M122.165 192.4a86.833 86.833 0 0 1-14.521 1.227c-47.412 0-85.983-38.571-85.983-85.981 0-5.387.497-10.759 1.478-15.966a7.5 7.5 0 0 0-.805-5.014 48.352 48.352 0 0 1-6.003-23.318C16.33 36.688 38.021 15 64.683 15a7.5 7.5 0 0 0 0-15C29.75 0 1.33 28.417 1.33 63.347a63.422 63.422 0 0 0 6.612 28.166 101.856 101.856 0 0 0-1.281 16.132c0 55.681 45.301 100.981 100.983 100.981 5.691 0 11.422-.484 17.035-1.438a7.5 7.5 0 0 0-2.514-14.788zm84.887-66.923a102.253 102.253 0 0 0 1.574-17.832c0-55.684-45.3-100.987-100.981-100.987-5.243 0-10.52.408-15.684 1.213a7.5 7.5 0 0 0-6.255 8.566 7.5 7.5 0 0 0 8.566 6.255 87.112 87.112 0 0 1 13.373-1.034c47.41 0 85.981 38.574 85.981 85.987 0 5.765-.582 11.567-1.729 17.245a7.505 7.505 0 0 0 .554 4.655c2.992 6.415 4.508 13.278 4.508 20.398 0 26.658-21.689 48.346-48.349 48.346a7.5 7.5 0 0 0 0 15c34.931 0 63.349-28.417 63.349-63.346 0-8.493-1.649-16.711-4.907-24.466z"/><path d="M145.904 124.689c0-4.476-.88-8.307-2.611-11.384-1.731-3.079-4.176-5.661-7.27-7.684-3.098-2.004-6.902-3.742-11.309-5.147-4.361-1.401-9.359-2.71-14.848-3.893-4.347-1.003-7.523-1.779-9.421-2.31a30.722 30.722 0 0 1-5.632-2.179c-1.849-.927-3.323-2.049-4.387-3.341-1.068-1.313-1.59-2.829-1.59-4.626 0-2.902 1.529-5.319 4.679-7.386 3.101-2.033 7.242-3.063 12.306-3.063 5.539 0 9.447.921 11.949 2.82 2.467 1.882 4.612 4.525 6.367 7.87 1.396 2.399 2.628 4.034 3.793 5.062 1.445 1.277 3.577 1.55 5.111 1.55 2.454 0 4.529-.867 6.168-2.573 1.641-1.71 2.471-3.654 2.471-5.777 0-2.333-.669-4.757-1.987-7.205-1.311-2.442-3.428-4.817-6.287-7.053-2.857-2.228-6.496-4.042-10.821-5.392-4.332-1.336-9.533-2.02-15.462-2.02-7.431 0-13.982 1.027-19.467 3.06-5.486 2.025-9.742 4.971-12.643 8.753-2.899 3.784-4.372 8.169-4.372 13.029 0 5.104 1.393 9.435 4.14 12.878 2.748 3.438 6.517 6.188 11.2 8.179 4.704 2 10.602 3.765 17.526 5.247 5.152 1.076 9.355 2.118 12.501 3.096 3.095.961 5.663 2.38 7.63 4.217 1.961 1.84 2.957 4.265 2.957 7.204 0 3.769-1.794 6.818-5.479 9.338-3.632 2.474-8.423 3.729-14.229 3.729-4.223 0-7.685-.623-10.28-1.852-2.593-1.227-4.637-2.813-6.073-4.71-1.426-1.888-2.775-4.274-4.014-7.108-1.007-2.369-2.244-4.188-3.67-5.396-1.426-1.207-3.196-1.822-5.263-1.822-2.581 0-4.647.765-6.311 2.335-1.647 1.543-2.483 3.427-2.483 5.601 0 3.742 1.391 7.643 4.131 11.601 2.751 3.964 6.372 7.174 10.765 9.545 6.199 3.287 14.165 4.95 23.694 4.95 7.941 0 14.912-1.22 20.72-3.63 5.798-2.412 10.262-5.792 13.269-10.048 3.005-4.254 4.532-9.12 4.532-14.465z"/></symbol><symbol viewBox="0 0 480.097 480.097" id="tablet"><path d="M206.759 332.99H39.225c-3.894 0-7.065-3.173-7.065-7.067V53.353c0-3.893 3.172-7.065 7.065-7.065h401.631c3.895 0 7.065 3.172 7.065 7.065v59.696c11.763 1.389 22.785 5.244 32.159 11.581V53.353c0-21.63-17.602-39.225-39.225-39.225H39.225C17.602 14.128 0 31.722 0 53.353v272.569c0 21.631 17.602 39.227 39.225 39.227h134.62v52.581h-21.229c-13.316 0-24.12 10.796-24.12 24.12 0 13.324 10.804 24.12 24.12 24.12h67.71c-8.463-11.902-13.566-26.35-13.566-42.037V332.99z"/><path d="M341.739 441.645v-34.742h-70.662V184.999c0-4.681 3.8-8.489 8.479-8.489h159.887c4.679 0 8.478 3.808 8.478 8.489v68.676h12.046c7.364 0 14.179 2.127 20.113 5.597v-74.273c0-22.417-18.23-40.648-40.638-40.648H279.556c-22.407 0-40.638 18.231-40.638 40.648v238.933c0 22.417 18.23 40.647 40.638 40.647h69.438c-4.428-6.359-7.255-15.22-7.255-22.934z"/><path d="M459.967 273.775h-77.996c-11.104 0-20.132 9.037-20.132 20.138v147.732c0 11.101 9.028 20.131 20.132 20.131h77.996c11.102 0 20.13-9.03 20.13-20.131V293.912c0-11.101-9.029-20.137-20.13-20.137zm-74.009 24.119h70.019v127.703h-70.019V297.894zm35.019 154.099c-2.215 0-4.193-.896-5.7-2.277-1.713-1.555-2.812-3.739-2.812-6.228 0-4.694 3.801-8.495 8.512-8.495 4.679 0 8.479 3.801 8.479 8.495 0 2.489-1.1 4.672-2.795 6.228-1.509 1.382-3.487 2.277-5.684 2.277z"/></symbol><symbol viewBox="0 0 410.155 410.155" id="twitter"><path d="M403.632 74.18a162.414 162.414 0 0 1-28.28 9.537 88.177 88.177 0 0 0 23.275-37.067c1.295-4.051-3.105-7.554-6.763-5.385a163.188 163.188 0 0 1-43.235 17.862 11.02 11.02 0 0 1-2.702.336c-2.766 0-5.455-1.027-7.57-2.891-16.156-14.239-36.935-22.081-58.508-22.081-9.335 0-18.76 1.455-28.014 4.325-28.672 8.893-50.795 32.544-57.736 61.724-2.604 10.945-3.309 21.9-2.097 32.56a3.166 3.166 0 0 1-.797 2.481 3.278 3.278 0 0 1-2.753 1.091c-62.762-5.831-119.358-36.068-159.363-85.14-2.04-2.503-5.952-2.196-7.578.593-7.834 13.44-11.974 28.812-11.974 44.454 0 23.972 9.631 46.563 26.36 63.032a79.24 79.24 0 0 1-20.169-7.808c-3.06-1.7-6.825.485-6.868 3.985-.438 35.612 20.412 67.3 51.646 81.569a79.567 79.567 0 0 1-16.786-1.399c-3.446-.658-6.341 2.611-5.271 5.952 10.138 31.651 37.39 54.981 70.002 60.278-27.066 18.169-58.585 27.753-91.39 27.753l-10.227-.006c-3.151 0-5.816 2.054-6.619 5.106-.791 3.006.666 6.177 3.353 7.74 36.966 21.513 79.131 32.883 121.955 32.883 37.485 0 72.549-7.439 104.219-22.109 29.033-13.449 54.689-32.674 76.255-57.141 20.09-22.792 35.8-49.103 46.692-78.201 10.383-27.737 15.871-57.333 15.871-85.589v-1.346c-.001-4.537 2.051-8.806 5.631-11.712a174.776 174.776 0 0 0 35.16-38.591c2.573-3.849-1.485-8.673-5.719-6.795z"/></symbol></svg>